<svg width="500" height="500" viewBox="0 0 500 500" fill="none" xmlns="http://www.w3.org/2000/svg">
<path d="M354.167 135.195C354.167 182.604 290.712 267.089 262.847 301.907C256.163 310.243 243.75 310.243 237.153 301.907C209.288 267.089 145.833 182.604 145.833 135.195C145.833 77.6273 192.448 31 250 31C307.552 31 354.167 77.6273 354.167 135.195ZM361.111 205.006C364.149 199.015 366.927 193.023 369.444 187.119C369.878 186.077 370.313 184.948 370.747 183.906L471.441 143.618C485.156 138.147 500 148.219 500 162.98V398.114C500 406.623 494.792 414.264 486.892 417.477L361.111 467.751V205.006ZM119.444 151.085C121.528 163.328 125.694 175.658 130.556 187.119C133.073 193.023 135.851 199.015 138.889 205.006V423.295L28.559 467.491C14.8438 472.961 0 462.889 0 448.128V212.994C0 204.485 5.20833 196.844 13.1076 193.631L119.531 151.085H119.444ZM284.549 319.273C296.615 304.165 315.538 279.592 333.333 252.415V468.88L166.667 421.211V252.415C184.462 279.592 203.385 304.165 215.451 319.273C233.247 341.501 266.753 341.501 284.549 319.273ZM250 162.98C259.209 162.98 268.041 159.321 274.552 152.808C281.064 146.294 284.722 137.46 284.722 128.249C284.722 119.037 281.064 110.203 274.552 103.69C268.041 97.1763 259.209 93.5171 250 93.5171C240.791 93.5171 231.959 97.1763 225.448 103.69C218.936 110.203 215.278 119.037 215.278 128.249C215.278 137.46 218.936 146.294 225.448 152.808C231.959 159.321 240.791 162.98 250 162.98Z" fill="black"/>
</svg>
